<?xml version="1.0" standalone="no"?>
<!DOCTYPE svg PUBLIC "-//W3C//DTD SVG 20010904//EN"
 "http://www.w3.org/TR/2001/REC-SVG-20010904/DTD/svg10.dtd">
<svg version="1.0" xmlns="http://www.w3.org/2000/svg"
 width="294.000000pt" height="300.000000pt" viewBox="0 0 294.000000 300.000000"
 preserveAspectRatio="xMidYMid meet">

<g transform="translate(0.000000,300.000000) scale(0.100000,-0.100000)"
fill="#000000" stroke="none">
<path d="M241 1071 c-11 -7 -5 -13 25 -27 21 -9 42 -17 45 -16 14 3 43 -41 60
-90 10 -29 18 -44 19 -32 0 11 -11 43 -25 69 -13 27 -23 50 -22 51 1 1 26 -1
55 -3 l53 -6 -6 -31 c-15 -69 -37 -135 -49 -145 -10 -9 -16 1 -25 45 -7 30
-14 54 -16 52 -2 -2 0 -33 5 -69 10 -83 -7 -191 -49 -317 -37 -112 -38 -119
-8 -119 28 0 74 69 112 170 29 78 82 324 84 395 1 21 4 22 104 23 56 1 116 4
132 8 28 7 29 8 8 15 -12 4 -120 11 -240 15 -120 4 -225 11 -233 14 -8 4 -21
3 -29 -2z"/>
<path d="M331 980 c14 -31 19 -36 19 -24 0 6 -7 19 -16 30 -14 18 -14 18 -3
-6z"/>
<path d="M2030 799 c-14 -25 -11 -30 18 -22 13 3 22 13 22 24 0 25 -27 24 -40
-2z"/>
<path d="M2471 811 c-19 -12 -94 -232 -83 -243 14 -14 37 1 56 36 10 19 34 49
53 68 l36 33 -7 -35 c-19 -98 -19 -115 3 -134 13 -12 26 -16 38 -11 16 7 15 8
-5 14 -22 6 -24 11 -17 36 7 21 35 158 35 166 0 19 -48 8 -70 -16 -34 -36 -40
-31 -24 22 21 71 18 85 -15 64z"/>
<path d="M847 786 c-9 -7 -22 -27 -28 -44 -14 -42 1 -68 50 -83 l39 -12 -19
-41 c-36 -80 -16 -136 49 -136 30 0 92 41 92 61 0 6 9 30 20 55 24 52 38 114
23 99 -6 -5 -16 -26 -22 -46 -13 -40 -78 -129 -94 -129 -10 0 -5 83 9 143 6
28 6 28 -40 26 -25 -2 -48 0 -51 3 -3 3 8 20 25 37 41 40 38 75 -5 78 -16 2
-38 -3 -48 -11z m53 -18 c0 -13 -29 -48 -41 -48 -9 0 -1 28 14 48 12 15 27 16
27 0z"/>
<path d="M1471 767 c-38 -19 -63 -61 -68 -114 -6 -63 23 -106 71 -102 17 2 43
-5 59 -15 30 -20 47 -15 28 7 -6 8 -8 27 -5 46 8 39 -7 41 -48 6 -40 -34 -52
-24 -45 42 7 69 35 117 67 117 13 0 26 -6 28 -13 3 -9 0 -11 -8 -6 -9 6 -9 3
-1 -13 6 -11 11 -33 11 -49 0 -22 2 -25 10 -13 9 13 10 13 10 0 1 -12 3 -12
11 2 14 26 1 65 -33 93 -33 28 -52 31 -87 12z m109 -72 c0 -5 -5 -3 -10 5 -5
8 -10 20 -10 25 0 6 5 3 10 -5 5 -8 10 -19 10 -25z"/>
<path d="M1996 717 c-67 -110 -93 -219 -49 -203 8 3 11 1 8 -4 -3 -6 0 -10 8
-10 8 0 14 11 14 29 0 16 11 56 26 88 43 97 37 175 -7 100z"/>
<path d="M1815 131 c-6 -11 9 -23 19 -14 9 9 7 23 -3 23 -6 0 -12 -4 -16 -9z"/>
<path d="M1398 119 c-26 -15 -22 -38 10 -51 l27 -11 -30 -7 c-24 -5 -27 -8
-13 -14 47 -21 82 30 36 52 l-23 11 23 0 c25 1 29 16 6 25 -19 7 -15 8 -36 -5z"/>
<path d="M810 85 c0 -19 -4 -35 -10 -35 -5 0 -10 -5 -10 -11 0 -6 10 -9 23 -7
18 2 23 10 25 46 2 33 0 42 -12 42 -12 0 -16 -10 -16 -35z"/>
<path d="M2090 80 c0 -39 21 -64 38 -45 4 4 1 10 -5 12 -17 6 -17 30 -1 35 9
3 8 9 -4 21 -24 25 -28 21 -28 -23z"/>
<path d="M935 100 c-3 -6 4 -10 17 -10 22 -1 22 -2 -5 -16 -35 -19 -30 -38 11
-42 30 -3 32 -2 32 31 0 23 -6 37 -16 41 -22 8 -32 8 -39 -4z"/>
<path d="M1076 102 c-8 -13 22 -72 37 -72 21 0 43 58 29 72 -11 11 -12 11 -25
-32 -3 -10 -8 -6 -16 13 -11 28 -16 32 -25 19z"/>
<path d="M1240 100 c-12 -8 -10 -10 10 -11 l25 0 -23 -11 c-32 -16 -24 -43 13
-43 24 0 31 5 33 24 3 15 -3 30 -14 38 -21 15 -24 16 -44 3z"/>
<path d="M1546 94 c-19 -18 -19 -20 -6 -45 11 -20 60 -27 60 -9 0 6 -9 10 -20
10 -27 0 -26 30 1 37 16 4 17 8 7 14 -18 12 -24 11 -42 -7z"/>
<path d="M1698 99 c-23 -13 -25 -69 -3 -69 10 0 15 10 15 30 0 17 5 30 10 30
6 0 10 5 10 10 0 13 -10 12 -32 -1z"/>
<path d="M1943 103 c-16 -6 -18 -103 -3 -103 6 0 10 6 10 14 0 8 10 16 23 18
29 4 36 47 11 65 -19 14 -22 14 -41 6z m29 -45 c-15 -15 -26 -4 -18 18 5 13 9
15 18 6 9 -9 9 -15 0 -24z"/>
<path d="M1818 65 c5 -45 22 -45 22 0 0 22 -5 35 -13 35 -9 0 -12 -11 -9 -35z"/>
</g>
</svg>
